<mxfile host="app.diagrams.net" modified="2024-03-25T18:50:21.677Z" agent="Mozilla/5.0 (Macintosh; Intel Mac OS X 10_15_7) AppleWebKit/605.1.15 (KHTML, like Gecko) Version/16.1 Safari/605.1.15" etag="GMpEJ46Ol72LPVKLkKzd" version="24.0.7" type="github">
  <diagram name="Page-1" id="0783ab3e-0a74-02c8-0abd-f7b4e66b4bec">
    <mxGraphModel dx="1363" dy="924" grid="1" gridSize="10" guides="1" tooltips="1" connect="1" arrows="1" fold="1" page="1" pageScale="1" pageWidth="850" pageHeight="1100" background="none" math="0" shadow="0">
      <root>
        <mxCell id="0" />
        <mxCell id="1" parent="0" />
        <mxCell id="NOXM3QyWZoRPAcwjZ54O-7" style="edgeStyle=orthogonalEdgeStyle;rounded=0;orthogonalLoop=1;jettySize=auto;html=1;" edge="1" parent="1" source="NOXM3QyWZoRPAcwjZ54O-1" target="NOXM3QyWZoRPAcwjZ54O-5">
          <mxGeometry relative="1" as="geometry">
            <Array as="points">
              <mxPoint x="225" y="560" />
            </Array>
          </mxGeometry>
        </mxCell>
        <mxCell id="NOXM3QyWZoRPAcwjZ54O-8" style="edgeStyle=orthogonalEdgeStyle;rounded=0;orthogonalLoop=1;jettySize=auto;html=1;" edge="1" parent="1" source="NOXM3QyWZoRPAcwjZ54O-1" target="NOXM3QyWZoRPAcwjZ54O-4">
          <mxGeometry relative="1" as="geometry" />
        </mxCell>
        <mxCell id="NOXM3QyWZoRPAcwjZ54O-15" style="edgeStyle=orthogonalEdgeStyle;rounded=0;orthogonalLoop=1;jettySize=auto;html=1;" edge="1" parent="1" target="NOXM3QyWZoRPAcwjZ54O-17">
          <mxGeometry relative="1" as="geometry">
            <mxPoint x="190" y="380" as="targetPoint" />
            <mxPoint x="165" y="510" as="sourcePoint" />
          </mxGeometry>
        </mxCell>
        <mxCell id="NOXM3QyWZoRPAcwjZ54O-16" value="Text" style="edgeLabel;html=1;align=center;verticalAlign=middle;resizable=0;points=[];" vertex="1" connectable="0" parent="NOXM3QyWZoRPAcwjZ54O-15">
          <mxGeometry x="1" y="6" relative="1" as="geometry">
            <mxPoint x="6" y="-6" as="offset" />
          </mxGeometry>
        </mxCell>
        <mxCell id="NOXM3QyWZoRPAcwjZ54O-18" style="edgeStyle=orthogonalEdgeStyle;rounded=0;orthogonalLoop=1;jettySize=auto;html=1;" edge="1" parent="1" source="NOXM3QyWZoRPAcwjZ54O-1" target="NOXM3QyWZoRPAcwjZ54O-19">
          <mxGeometry relative="1" as="geometry">
            <mxPoint x="360" y="450.0000000000001" as="targetPoint" />
          </mxGeometry>
        </mxCell>
        <mxCell id="NOXM3QyWZoRPAcwjZ54O-21" style="edgeStyle=orthogonalEdgeStyle;rounded=0;orthogonalLoop=1;jettySize=auto;html=1;" edge="1" parent="1" source="NOXM3QyWZoRPAcwjZ54O-1" target="NOXM3QyWZoRPAcwjZ54O-20">
          <mxGeometry relative="1" as="geometry" />
        </mxCell>
        <mxCell id="NOXM3QyWZoRPAcwjZ54O-1" value="User" style="shape=umlActor;verticalLabelPosition=bottom;verticalAlign=top;html=1;outlineConnect=0;" vertex="1" parent="1">
          <mxGeometry x="140" y="510" width="50" height="100" as="geometry" />
        </mxCell>
        <mxCell id="NOXM3QyWZoRPAcwjZ54O-25" style="edgeStyle=orthogonalEdgeStyle;rounded=0;orthogonalLoop=1;jettySize=auto;html=1;" edge="1" parent="1" source="NOXM3QyWZoRPAcwjZ54O-2" target="NOXM3QyWZoRPAcwjZ54O-26">
          <mxGeometry relative="1" as="geometry">
            <mxPoint x="690" y="300" as="targetPoint" />
          </mxGeometry>
        </mxCell>
        <mxCell id="NOXM3QyWZoRPAcwjZ54O-2" value="Browser&amp;nbsp;" style="shape=umlActor;verticalLabelPosition=bottom;verticalAlign=top;html=1;outlineConnect=0;" vertex="1" parent="1">
          <mxGeometry x="750" y="250" width="50" height="100" as="geometry" />
        </mxCell>
        <mxCell id="NOXM3QyWZoRPAcwjZ54O-3" value="Developer&amp;nbsp;&lt;div&gt;&lt;br&gt;&lt;/div&gt;" style="shape=umlActor;verticalLabelPosition=bottom;verticalAlign=top;html=1;outlineConnect=0;" vertex="1" parent="1">
          <mxGeometry x="395" y="140" width="35" height="80" as="geometry" />
        </mxCell>
        <mxCell id="NOXM3QyWZoRPAcwjZ54O-4" value="Regular User" style="shape=umlActor;verticalLabelPosition=bottom;verticalAlign=top;html=1;outlineConnect=0;" vertex="1" parent="1">
          <mxGeometry x="80" y="710" width="50" height="100" as="geometry" />
        </mxCell>
        <mxCell id="NOXM3QyWZoRPAcwjZ54O-5" value="Admin" style="shape=umlActor;verticalLabelPosition=bottom;verticalAlign=top;html=1;outlineConnect=0;" vertex="1" parent="1">
          <mxGeometry x="200" y="710" width="50" height="90" as="geometry" />
        </mxCell>
        <mxCell id="NOXM3QyWZoRPAcwjZ54O-11" value="Tester-Reviewer" style="shape=umlActor;verticalLabelPosition=bottom;verticalAlign=top;html=1;outlineConnect=0;" vertex="1" parent="1">
          <mxGeometry x="490" y="140" width="40" height="80" as="geometry" />
        </mxCell>
        <mxCell id="NOXM3QyWZoRPAcwjZ54O-27" style="edgeStyle=orthogonalEdgeStyle;rounded=0;orthogonalLoop=1;jettySize=auto;html=1;" edge="1" parent="1" source="NOXM3QyWZoRPAcwjZ54O-12" target="NOXM3QyWZoRPAcwjZ54O-28">
          <mxGeometry relative="1" as="geometry">
            <mxPoint x="660" y="510" as="targetPoint" />
          </mxGeometry>
        </mxCell>
        <mxCell id="NOXM3QyWZoRPAcwjZ54O-12" value="Operating System&amp;nbsp;" style="shape=umlActor;verticalLabelPosition=bottom;verticalAlign=top;html=1;outlineConnect=0;" vertex="1" parent="1">
          <mxGeometry x="750" y="460" width="50" height="100" as="geometry" />
        </mxCell>
        <mxCell id="NOXM3QyWZoRPAcwjZ54O-17" value="Login" style="ellipse;whiteSpace=wrap;html=1;" vertex="1" parent="1">
          <mxGeometry x="140" y="340" width="80" height="40" as="geometry" />
        </mxCell>
        <mxCell id="NOXM3QyWZoRPAcwjZ54O-19" value="Register" style="ellipse;whiteSpace=wrap;html=1;" vertex="1" parent="1">
          <mxGeometry x="220" y="460" width="80" height="40" as="geometry" />
        </mxCell>
        <mxCell id="NOXM3QyWZoRPAcwjZ54O-20" value="Post" style="ellipse;whiteSpace=wrap;html=1;" vertex="1" parent="1">
          <mxGeometry x="20" y="430" width="70" height="30" as="geometry" />
        </mxCell>
        <mxCell id="NOXM3QyWZoRPAcwjZ54O-26" value="Render page" style="ellipse;whiteSpace=wrap;html=1;" vertex="1" parent="1">
          <mxGeometry x="570" y="285" width="100" height="30" as="geometry" />
        </mxCell>
        <mxCell id="NOXM3QyWZoRPAcwjZ54O-28" value="provide permissions" style="ellipse;whiteSpace=wrap;html=1;" vertex="1" parent="1">
          <mxGeometry x="490" y="490" width="130" height="51.25" as="geometry" />
        </mxCell>
      </root>
    </mxGraphModel>
  </diagram>
</mxfile>
